<svg width="64" height="64" viewBox="0 0 64 64" fill="none" xmlns="http://www.w3.org/2000/svg">
<rect width="64" height="64" rx="8" fill="white"/>
<path d="M18.0054 17.188C20.2854 17.188 22.1574 17.644 23.6214 18.556C25.1094 19.444 26.2614 20.296 27.0774 21.112C27.1734 21.208 27.2214 21.316 27.2214 21.436C27.2214 21.508 27.1854 21.604 27.1134 21.724C27.0654 21.82 27.0294 21.892 27.0054 21.94C26.8854 22.108 26.6814 22.408 26.3934 22.84C26.1294 23.248 25.9134 23.548 25.7454 23.74C25.6734 23.836 25.5894 23.944 25.4934 24.064C25.4214 24.16 25.3494 24.232 25.2774 24.28C25.2294 24.328 25.1454 24.352 25.0254 24.352C24.9774 24.352 24.8574 24.28 24.6654 24.136C24.4974 23.968 24.3294 23.824 24.1614 23.704C23.2014 22.864 22.2654 22.144 21.3534 21.544C20.4414 20.944 19.5654 20.644 18.7254 20.644C18.0534 20.644 17.5014 20.8 17.0694 21.112C16.6374 21.4 16.4214 22.072 16.4214 23.128C16.4214 24.16 16.8054 24.964 17.5734 25.54C18.3414 26.116 19.3614 26.668 20.6334 27.196C20.7534 27.244 21.4494 27.544 22.7214 28.096C24.0174 28.648 25.1574 29.704 26.1414 31.264C27.1494 32.824 27.6534 34.684 27.6534 36.844C27.6534 39.148 26.7894 40.876 25.0614 42.028C23.3334 43.18 20.9454 43.756 17.8974 43.756C14.4414 43.756 12.2454 43.096 11.3094 41.776C10.3734 40.432 9.88142 39.736 9.83342 39.688C9.73742 39.568 9.68942 39.448 9.68942 39.328C9.68942 39.256 9.78542 39.1 9.97742 38.86C10.2894 38.428 10.7454 37.912 11.3454 37.312C11.4414 37.216 11.5374 37.168 11.6334 37.168C11.7534 37.168 11.8854 37.264 12.0294 37.456C12.1734 37.624 12.2934 37.756 12.3894 37.852C13.8054 39.268 15.4134 39.976 17.2134 39.976C18.1254 39.976 18.9174 39.808 19.5894 39.472C20.2614 39.112 20.5974 38.452 20.5974 37.492C20.5974 35.836 19.2894 34.072 16.6734 32.2C16.2414 31.912 15.8334 31.672 15.4494 31.48C14.4414 30.928 13.5774 30.388 12.8574 29.86C12.1374 29.332 11.5014 28.636 10.9494 27.772C10.3974 26.908 10.1214 25.9 10.1214 24.748C10.1214 23.308 10.5654 22.012 11.4534 20.86C12.3654 19.708 13.4454 18.808 14.6934 18.16C15.9654 17.512 17.0694 17.188 18.0054 17.188ZM33.2756 18.952C33.2036 19.48 33.1436 20.836 33.0956 23.02C33.0956 23.692 33.0476 25.396 32.9516 28.132C32.8556 30.772 32.8076 32.38 32.8076 32.956C32.8076 34.348 32.8316 36.112 32.8796 38.248C32.9276 40.36 32.9756 41.62 33.0236 42.028C33.0476 42.172 33.0596 42.34 33.0596 42.532C33.0596 42.7 33.0236 42.82 32.9516 42.892C32.9036 42.964 32.8196 43.036 32.6996 43.108C32.5556 43.204 32.1836 43.252 31.5836 43.252C31.4876 43.252 31.3316 43.252 31.1156 43.252C30.9236 43.252 30.8036 43.228 30.7556 43.18C30.7076 43.132 30.6836 43.036 30.6836 42.892L30.7196 41.74L30.7916 37.024L30.8636 29.464C30.8636 28.744 30.9116 27.112 31.0076 24.568C31.0316 23.968 31.0676 22.996 31.1156 21.652C31.1636 20.284 31.1636 19.48 31.1156 19.24L31.0796 18.484C31.0796 17.86 31.2716 17.548 31.6556 17.548L32.9876 17.584C33.2276 17.584 33.3476 17.752 33.3476 18.088C33.3476 18.208 33.3356 18.352 33.3116 18.52C33.2876 18.664 33.2756 18.808 33.2756 18.952ZM55.1391 42.28C55.2591 42.52 55.3191 42.676 55.3191 42.748C55.3191 42.94 55.1031 43.036 54.6711 43.036H52.0791C51.9831 43.036 51.8871 42.952 51.7911 42.784C51.6951 42.616 51.6111 42.448 51.5391 42.28C51.4671 42.112 51.4071 41.968 51.3591 41.848C51.2391 41.608 51.0111 41.056 50.6751 40.192C50.3631 39.328 50.1231 38.644 49.9551 38.14C49.8831 37.9 49.7391 37.552 49.5231 37.096C49.3071 36.616 49.1511 36.28 49.0551 36.088C48.9591 35.8 48.8631 35.608 48.7671 35.512C48.6951 35.416 48.5751 35.368 48.4071 35.368C48.2391 35.368 48.0231 35.38 47.7591 35.404C47.5191 35.428 47.2551 35.452 46.9671 35.476C46.7751 35.524 46.1751 35.548 45.1671 35.548C44.4711 35.548 43.7871 35.572 43.1151 35.62C42.8991 35.644 42.5151 35.656 41.9631 35.656L40.0551 35.62C39.9351 35.62 39.8391 35.668 39.7671 35.764C39.7191 35.86 39.6831 35.98 39.6591 36.124C39.6351 36.244 39.6111 36.34 39.5871 36.412L39.3711 37.312C39.2991 37.648 39.2031 38.044 39.0831 38.5C38.9871 38.932 38.9031 39.34 38.8311 39.724L38.4351 41.272L38.1471 42.316C38.0751 42.604 38.0031 42.796 37.9311 42.892C37.8831 42.964 37.7991 43 37.6791 43H35.5551C35.4351 43 35.3751 42.952 35.3751 42.856C35.3751 42.808 35.4231 42.64 35.5191 42.352C35.7111 41.896 35.8791 41.44 36.0231 40.984C36.9111 38.008 37.4391 36.064 37.6071 35.152C37.8231 33.952 38.2671 32.404 38.9391 30.508C39.1551 29.692 39.3591 28.948 39.5511 28.276C39.6231 27.94 39.7311 27.532 39.8751 27.052C40.3311 25.372 40.7871 23.8 41.2431 22.336L42.1431 19.456C42.3351 18.712 42.5751 17.944 42.8631 17.152C43.0071 16.792 43.1751 16.708 43.3671 16.9C43.5111 16.996 43.6191 17.164 43.6911 17.404C43.7631 17.644 43.8111 17.812 43.8351 17.908C43.9071 18.196 44.5431 19.636 45.7431 22.228C46.2231 23.212 46.7391 24.496 47.2911 26.08C47.5311 26.776 48.1911 28.276 49.2711 30.58C49.8231 31.708 50.1831 32.488 50.3511 32.92C50.7351 33.76 51.7671 35.8 53.4471 39.04L53.8791 39.94C54.4311 41.164 54.8511 41.944 55.1391 42.28ZM45.7071 30.4C45.8751 30.376 46.0191 30.364 46.1391 30.364C46.2591 30.364 46.3551 30.352 46.4271 30.328C46.4991 30.304 46.5351 30.268 46.5351 30.22C46.5351 30.172 46.4991 30.076 46.4271 29.932C46.3071 29.716 46.0311 29.116 45.5991 28.132C45.1671 27.124 44.8671 26.368 44.6991 25.864C44.4591 25.288 44.2671 24.808 44.1231 24.424C44.0031 24.04 43.9071 23.776 43.8351 23.632C43.7871 23.512 43.7271 23.392 43.6551 23.272C43.6071 23.152 43.5591 23.056 43.5111 22.984C43.4631 22.912 43.4151 22.876 43.3671 22.876C43.2951 22.876 43.2111 23.056 43.1151 23.416C43.0431 23.776 42.9831 24.052 42.9351 24.244C42.5031 25.636 42.1911 26.692 41.9991 27.412C41.9031 27.772 41.7591 28.216 41.5671 28.744C41.3991 29.248 41.2791 29.596 41.2071 29.788C41.1351 30.028 41.0991 30.22 41.0991 30.364C41.0991 30.508 41.2071 30.58 41.4231 30.58C41.9271 30.58 42.6951 30.568 43.7271 30.544C44.7831 30.496 45.4431 30.448 45.7071 30.4Z" fill="black"/>
</svg>
